<?xml version="1.0" encoding="UTF-8"?>
<svg id="Layer_2" data-name="Layer 2" xmlns="http://www.w3.org/2000/svg" viewBox="0 0 185.03 17.78">
  <defs>
    <style>
      .cls-1 {
        fill: #187ebb;
      }

      .cls-2 {
        fill: #1d4e7a;
      }
    </style>
  </defs>
  <g id="Layer_1-2" data-name="Layer 1">
    <g>
      <path class="cls-2" d="M184.13.28c.1.11.15,2.99,0,2.99h-16.09c-.76,0-1.54,2.35-1.12,2.99,1.23,1.85,14.84-.52,17.04,1.68,2.09,2.09,1.06,9.55-2.44,9.55h-17.59c-.15,0-.15-2.99,0-2.99h17.22v-4.49h-13.85c-5.62,0-4.77-9.73-.75-9.73,2.45,0,16.98-.63,17.59,0Z"/>
      <path class="cls-2" d="M136.98,12.26V.28h3.74v17.22c-1.3.1-2.47.1-3.71-.41-4.3-1.76-10.73-9.7-15.75-11.57v11.98h-3.74V.28c1.3-.1,2.47-.1,3.71.41,4.3,1.76,10.73,9.7,15.75,11.57Z"/>
      <path class="cls-1" d="M85.7.28c5.22.92,5.2,11.14,3.62,14.8-.32.74-3.34,2.41-3.62,2.41h-17.59V.28c5.3.65,12.56-.88,17.59,0ZM71.11,14.5h13.85c2.66,0,2.66-11.23,0-11.23h-13.85v11.23Z"/>
      <path class="cls-1" d="M26.95,3.28v3.74h13.47c.15,0,.15,2.99,0,2.99h-13.47v4.49h13.1c1.29,0,1.29,2.99,0,2.99h-16.84V.28h16.84c1.29,0,1.29,2.99,0,2.99h-13.1Z"/>
      <path class="cls-1" d="M3.74,7.02h12.72V.28s3.74,0,3.74,0v17.22h-3.75s0-7.49,0-7.49H3.74c-.51,0,1.93,9.44-3.74,7.49V.28C5-.48,3.67,3.46,3.74,7.02Z"/>
      <path class="cls-2" d="M142.96.28h3.75s.42,6.75.42,6.75c6.89,2.24,8.15-8.36,14.55-6.37-.17,2.04-6.6,6.47-6.61,7.47,0,1.46,8.07,8.04,6.6,9.36-7.11,1-6.77-9.78-14.97-7.48v7.49s-3.74,0-3.74,0V.28Z"/>
      <path class="cls-1" d="M66.61,17.49c-5.89,2.47-9.18-12.02-12.35-12.02-2.34,0-6.66,10.49-8.61,11.65-.94.56-4.44,1.05-3.73-.73.51-1.28,9.07-13.91,10.22-15.19,1.46-1.61,2.39-1.27,4.02.19l10.45,16.11Z"/>
      <path class="cls-2" d="M95.81.28v14.22h13.47c.15,0,.15,2.99,0,2.99h-17.22V.28h3.74Z"/>
      <rect class="cls-2" x="111.53" y=".28" width="3.74" height="17.22"/>
    </g>
  </g>
</svg>