<svg width="232" height="80" viewBox="0 0 232 80" fill="none" xmlns="http://www.w3.org/2000/svg">
<rect y="1" width="46" height="13" fill="white"/>
<rect y="20" width="46" height="13" fill="white"/>
<rect x="61" y="1" width="52" height="10" transform="rotate(90 61 1)" fill="white"/>
<path d="M84.5 35.5V53L61 19.5V1L84.5 35.5Z" fill="white"/>
<rect x="94" y="1" width="52" height="10" transform="rotate(90 94 1)" fill="white"/>
<rect x="189" width="43" height="14" fill="white"/>
<path d="M189 39L215 14L232 14L206.5 39L232 39V53L189 53V39Z" fill="white"/>
<path d="M131 1L131 48C131 50.7614 128.761 53 126 53L121 53L121 1L131 1Z" fill="white"/>
<path d="M165 1L141.5 53L130.5 53L154 1L165 1Z" fill="white"/>
<path d="M154 1L177.159 53L188 53L164.841 1L154 1Z" fill="white"/>
<path d="M131 48C131 50.7614 128.761 53 126 53L98 53L98 41L131 41L131 48Z" fill="white"/>
<rect y="40" width="46" height="13" fill="white"/>
<circle cx="159.5" cy="36.5" r="6.5" fill="white"/>
<path d="M5.508 70.2716H1.9116V72.6476H5.3784V73.5872H1.9116V76.0604H5.6484L5.562 77H0.8424V69.332H5.508V70.2716ZM11.9206 69.332H12.9682V77H12.0178L7.84898 71.1572V77H6.80138V69.332H7.75178L11.9206 75.1748V69.332ZM15.7609 77.0972C15.2065 77.0972 14.7313 76.9604 14.3353 76.6868C13.9465 76.4132 13.6945 76.0388 13.5793 75.5636L14.4757 75.164C14.6917 75.8048 15.1273 76.1252 15.7825 76.1252C16.1497 76.1252 16.4233 76.0136 16.6033 75.7904C16.7833 75.5672 16.8733 75.218 16.8733 74.7428V69.332H17.9749V74.6672C17.9749 75.4448 17.7913 76.046 17.4241 76.4708C17.0569 76.8884 16.5025 77.0972 15.7609 77.0972ZM18.7634 77L21.9926 69.332H22.9214L26.021 77H24.9086L24.1634 75.0884H20.6534L19.8758 77H18.7634ZM21.0314 74.1596H23.807L22.4462 70.6712L21.0314 74.1596ZM26.4298 77V76.2116L30.8146 70.2824H26.6026V69.332H32.2294V70.1204L27.8554 76.0496H32.359L32.2834 77H26.4298ZM35.1532 77L38.3824 69.332H39.3112L42.4108 77H41.2984L40.5532 75.0884H37.0432L36.2656 77H35.1532ZM37.4212 74.1596H40.1968L38.836 70.6712L37.4212 74.1596ZM43.3147 77V69.332H44.4055V76.0496H47.9155L47.8291 77H43.3147ZM54.4608 75.9416L54.7092 76.784C54.4572 76.9784 54.1152 77.0756 53.6832 77.0756C53.3376 77.0756 53.0244 77 52.7436 76.8488C52.4628 76.6904 52.2036 76.4312 51.966 76.0712L50.6808 74.1488C50.4648 73.8248 50.2164 73.6628 49.9356 73.6628H49.7628V77H48.6936V69.332H50.9508C51.8652 69.332 52.56 69.5264 53.0352 69.9152C53.5104 70.2968 53.748 70.8224 53.748 71.492C53.748 71.9456 53.6436 72.3272 53.4348 72.6368C53.226 72.9464 52.9416 73.184 52.5816 73.3496C52.2216 73.5152 51.822 73.6124 51.3828 73.6412C51.5844 73.7492 51.7824 73.9436 51.9768 74.2244L52.7976 75.434C52.9776 75.7076 53.136 75.8912 53.2728 75.9848C53.4168 76.0712 53.6076 76.1144 53.8452 76.1144C54.0684 76.1144 54.2736 76.0568 54.4608 75.9416ZM50.8752 70.2284H49.7628V72.7988H50.7888C51.4008 72.7988 51.8652 72.698 52.182 72.4964C52.506 72.2876 52.668 71.96 52.668 71.5136C52.668 71.1032 52.5204 70.7864 52.2252 70.5632C51.93 70.34 51.48 70.2284 50.8752 70.2284ZM55.2115 77V69.332H56.3023V77H55.2115ZM63.4826 69.332L60.7502 73.544V77H59.6594V73.5656L56.8838 69.332H58.115L60.2534 72.5936L62.327 69.332H63.4826ZM62.5857 77L65.8149 69.332H66.7437L69.8433 77H68.7309L67.9857 75.0884H64.4757L63.6981 77H62.5857ZM64.8537 74.1596H67.6293L66.2685 70.6712L64.8537 74.1596ZM70.7471 77V69.332H72.8423C75.8303 69.332 77.3243 70.5992 77.3243 73.1336C77.3243 73.9256 77.1551 74.6132 76.8167 75.1964C76.4855 75.7724 76.0103 76.2188 75.3911 76.5356C74.7719 76.8452 74.0375 77 73.1879 77H70.7471ZM71.8379 76.028H73.1447C74.1527 76.028 74.9159 75.7868 75.4343 75.3044C75.9527 74.822 76.2119 74.1164 76.2119 73.1876C76.2119 72.2156 75.9491 71.492 75.4235 71.0168C74.8979 70.5416 74.0915 70.304 73.0043 70.304H71.8379V76.028ZM77.6993 77L80.9285 69.332H81.8573L84.9569 77H83.8445L83.0993 75.0884H79.5893L78.8117 77H77.6993ZM79.9673 74.1596H82.7429L81.3821 70.6712L79.9673 74.1596ZM94.6774 75.5204C94.3894 76.0316 93.9898 76.424 93.4786 76.6976C92.9674 76.964 92.3878 77.0972 91.7398 77.0972C90.991 77.0972 90.343 76.946 89.7958 76.6436C89.2558 76.334 88.8418 75.8984 88.5538 75.3368C88.2658 74.768 88.1218 74.0912 88.1218 73.3064C88.1218 72.5 88.2802 71.7908 88.597 71.1788C88.921 70.5668 89.3674 70.088 89.9362 69.7424C90.505 69.3968 91.1674 69.224 91.9234 69.224C93.1762 69.224 94.0978 69.7172 94.6882 70.7036L93.8458 71.33C93.637 70.9556 93.367 70.6784 93.0358 70.4984C92.7046 70.3112 92.3266 70.2176 91.9018 70.2176C91.3762 70.2176 90.9118 70.3472 90.5086 70.6064C90.1126 70.8656 89.7994 71.2292 89.569 71.6972C89.3458 72.158 89.2342 72.6908 89.2342 73.2956C89.2342 74.1812 89.4538 74.8688 89.893 75.3584C90.3394 75.848 90.9586 76.0928 91.7506 76.0928C92.2114 76.0928 92.6218 75.992 92.9818 75.7904C93.3418 75.5888 93.6334 75.2864 93.8566 74.8832L94.6774 75.5204ZM98.5628 77.0972C97.8212 77.0972 97.1804 76.9496 96.6404 76.6544C96.1076 76.352 95.6972 75.92 95.4092 75.3584C95.1212 74.7896 94.9772 74.1056 94.9772 73.3064C94.9772 72.5072 95.1356 71.8016 95.4524 71.1896C95.7692 70.5704 96.2084 70.088 96.77 69.7424C97.3388 69.3968 97.9976 69.224 98.7464 69.224C99.4304 69.224 100.032 69.3824 100.55 69.6992C101.068 70.016 101.472 70.4588 101.76 71.0276C102.048 71.5892 102.192 72.2516 102.192 73.0148C102.192 73.8428 102.033 74.5628 101.716 75.1748C101.407 75.7796 100.978 76.2512 100.431 76.5896C99.884 76.9208 99.2612 77.09 98.5628 77.0972ZM98.552 76.0928C99.0488 76.0928 99.488 75.974 99.8696 75.7364C100.251 75.4916 100.546 75.1388 100.755 74.678C100.971 74.21 101.079 73.652 101.079 73.004C101.079 72.4352 100.982 71.942 100.788 71.5244C100.6 71.1068 100.33 70.7864 99.9776 70.5632C99.632 70.3328 99.2216 70.2176 98.7464 70.2176C98.228 70.2176 97.7672 70.3472 97.364 70.6064C96.968 70.8584 96.6548 71.2184 96.4244 71.6864C96.2012 72.1472 96.0896 72.6836 96.0896 73.2956C96.0896 74.1956 96.3092 74.8868 96.7484 75.3692C97.1876 75.8516 97.7888 76.0928 98.552 76.0928ZM103.546 77L103.86 69.332H104.864L107.769 75.6392L110.674 69.332H111.679L111.938 77H110.89L110.707 71.5244L108.169 77H107.294L104.799 71.5568L104.562 77H103.546ZM113.513 77L113.826 69.332H114.831L117.736 75.6392L120.641 69.332H121.646L121.905 77H120.857L120.674 71.5244L118.136 77H117.261L114.766 71.5568L114.528 77H113.513ZM128.21 70.2716H124.614V72.6476H128.081V73.5872H124.614V76.0604H128.351L128.264 77H123.545V69.332H128.21V70.2716ZM135.271 75.9416L135.519 76.784C135.267 76.9784 134.925 77.0756 134.493 77.0756C134.148 77.0756 133.835 77 133.554 76.8488C133.273 76.6904 133.014 76.4312 132.776 76.0712L131.491 74.1488C131.275 73.8248 131.027 73.6628 130.746 73.6628H130.573V77H129.504V69.332H131.761C132.675 69.332 133.37 69.5264 133.845 69.9152C134.321 70.2968 134.558 70.8224 134.558 71.492C134.558 71.9456 134.454 72.3272 134.245 72.6368C134.036 72.9464 133.752 73.184 133.392 73.3496C133.032 73.5152 132.632 73.6124 132.193 73.6412C132.395 73.7492 132.593 73.9436 132.787 74.2244L133.608 75.434C133.788 75.7076 133.946 75.8912 134.083 75.9848C134.227 76.0712 134.418 76.1144 134.655 76.1144C134.879 76.1144 135.084 76.0568 135.271 75.9416ZM131.685 70.2284H130.573V72.7988H131.599C132.211 72.7988 132.675 72.698 132.992 72.4964C133.316 72.2876 133.478 71.96 133.478 71.5136C133.478 71.1032 133.331 70.7864 133.035 70.5632C132.74 70.34 132.29 70.2284 131.685 70.2284ZM142.128 75.5204C141.84 76.0316 141.44 76.424 140.929 76.6976C140.418 76.964 139.838 77.0972 139.19 77.0972C138.441 77.0972 137.793 76.946 137.246 76.6436C136.706 76.334 136.292 75.8984 136.004 75.3368C135.716 74.768 135.572 74.0912 135.572 73.3064C135.572 72.5 135.731 71.7908 136.047 71.1788C136.371 70.5668 136.818 70.088 137.387 69.7424C137.955 69.3968 138.618 69.224 139.374 69.224C140.627 69.224 141.548 69.7172 142.139 70.7036L141.296 71.33C141.087 70.9556 140.817 70.6784 140.486 70.4984C140.155 70.3112 139.777 70.2176 139.352 70.2176C138.827 70.2176 138.362 70.3472 137.959 70.6064C137.563 70.8656 137.25 71.2292 137.019 71.6972C136.796 72.158 136.685 72.6908 136.685 73.2956C136.685 74.1812 136.904 74.8688 137.343 75.3584C137.79 75.848 138.409 76.0928 139.201 76.0928C139.662 76.0928 140.072 75.992 140.432 75.7904C140.792 75.5888 141.084 75.2864 141.307 74.8832L142.128 75.5204ZM142.951 77V69.332H144.042V77H142.951ZM144.904 77L148.133 69.332H149.062L152.162 77H151.049L150.304 75.0884H146.794L146.016 77H144.904ZM147.172 74.1596H149.948L148.587 70.6712L147.172 74.1596ZM153.065 77V69.332H154.156V76.0496H157.666L157.58 77H153.065ZM160.986 77V69.332H163.233C164.262 69.332 165.029 69.5084 165.533 69.8612C166.044 70.214 166.3 70.7252 166.3 71.3948C166.3 71.7836 166.195 72.1292 165.987 72.4316C165.785 72.734 165.493 72.9608 165.112 73.112C165.508 73.2488 165.821 73.472 166.051 73.7816C166.282 74.0912 166.397 74.4476 166.397 74.8508C166.397 75.5348 166.159 76.064 165.684 76.4384C165.209 76.8128 164.561 77 163.74 77H160.986ZM163.243 70.2284H162.055V72.6908H163.351C163.971 72.6908 164.435 72.59 164.745 72.3884C165.054 72.1796 165.209 71.8592 165.209 71.4272C165.209 71.0096 165.051 70.7072 164.734 70.52C164.424 70.3256 163.927 70.2284 163.243 70.2284ZM162.055 76.1036H163.708C164.197 76.1036 164.586 76.0064 164.874 75.812C165.162 75.6104 165.306 75.29 165.306 74.8508C165.306 74.0156 164.752 73.598 163.643 73.598H162.055V76.1036ZM173.461 75.9416L173.71 76.784C173.458 76.9784 173.116 77.0756 172.684 77.0756C172.338 77.0756 172.025 77 171.744 76.8488C171.463 76.6904 171.204 76.4312 170.966 76.0712L169.681 74.1488C169.465 73.8248 169.217 73.6628 168.936 73.6628H168.763V77H167.694V69.332H169.951C170.866 69.332 171.56 69.5264 172.036 69.9152C172.511 70.2968 172.748 70.8224 172.748 71.492C172.748 71.9456 172.644 72.3272 172.435 72.6368C172.226 72.9464 171.942 73.184 171.582 73.3496C171.222 73.5152 170.822 73.6124 170.383 73.6412C170.585 73.7492 170.783 73.9436 170.977 74.2244L171.798 75.434C171.978 75.7076 172.136 75.8912 172.273 75.9848C172.417 76.0712 172.608 76.1144 172.846 76.1144C173.069 76.1144 173.274 76.0568 173.461 75.9416ZM169.876 70.2284H168.763V72.7988H169.789C170.401 72.7988 170.866 72.698 171.182 72.4964C171.506 72.2876 171.668 71.96 171.668 71.5136C171.668 71.1032 171.521 70.7864 171.226 70.5632C170.93 70.34 170.48 70.2284 169.876 70.2284ZM177.348 77.0972C176.606 77.0972 175.966 76.9496 175.426 76.6544C174.893 76.352 174.482 75.92 174.194 75.3584C173.906 74.7896 173.762 74.1056 173.762 73.3064C173.762 72.5072 173.921 71.8016 174.238 71.1896C174.554 70.5704 174.994 70.088 175.555 69.7424C176.124 69.3968 176.783 69.224 177.532 69.224C178.216 69.224 178.817 69.3824 179.335 69.6992C179.854 70.016 180.257 70.4588 180.545 71.0276C180.833 71.5892 180.977 72.2516 180.977 73.0148C180.977 73.8428 180.818 74.5628 180.502 75.1748C180.192 75.7796 179.764 76.2512 179.216 76.5896C178.669 76.9208 178.046 77.09 177.348 77.0972ZM177.337 76.0928C177.834 76.0928 178.273 75.974 178.655 75.7364C179.036 75.4916 179.332 75.1388 179.54 74.678C179.756 74.21 179.864 73.652 179.864 73.004C179.864 72.4352 179.767 71.942 179.573 71.5244C179.386 71.1068 179.116 70.7864 178.763 70.5632C178.417 70.3328 178.007 70.2176 177.532 70.2176C177.013 70.2176 176.552 70.3472 176.149 70.6064C175.753 70.8584 175.44 71.2184 175.21 71.6864C174.986 72.1472 174.875 72.6836 174.875 73.2956C174.875 74.1956 175.094 74.8868 175.534 75.3692C175.973 75.8516 176.574 76.0928 177.337 76.0928ZM182.396 77V69.332H183.487V72.842L186.868 69.332H188.207L184.492 73.1552C184.787 73.2992 185.042 73.5368 185.258 73.868L186.284 75.434C186.464 75.7076 186.626 75.8912 186.77 75.9848C186.914 76.0712 187.102 76.1144 187.332 76.1144C187.562 76.1144 187.771 76.0568 187.958 75.9416L188.207 76.784C187.948 76.9784 187.606 77.0756 187.181 77.0756C186.828 77.0756 186.511 77 186.23 76.8488C185.95 76.6904 185.694 76.4312 185.464 76.0712L184.168 74.1488C184.088 74.0192 183.995 73.9148 183.887 73.8356C183.779 73.7564 183.646 73.6988 183.487 73.6628V77H182.396ZM193.464 70.2716H189.867V72.6476H193.334V73.5872H189.867V76.0604H193.604L193.518 77H188.798V69.332H193.464V70.2716ZM200.524 75.9416L200.773 76.784C200.521 76.9784 200.179 77.0756 199.747 77.0756C199.401 77.0756 199.088 77 198.807 76.8488C198.526 76.6904 198.267 76.4312 198.03 76.0712L196.744 74.1488C196.528 73.8248 196.28 73.6628 195.999 73.6628H195.826V77H194.757V69.332H197.014C197.929 69.332 198.624 69.5264 199.099 69.9152C199.574 70.2968 199.812 70.8224 199.812 71.492C199.812 71.9456 199.707 72.3272 199.498 72.6368C199.29 72.9464 199.005 73.184 198.645 73.3496C198.285 73.5152 197.886 73.6124 197.446 73.6412C197.648 73.7492 197.846 73.9436 198.04 74.2244L198.861 75.434C199.041 75.7076 199.2 75.8912 199.336 75.9848C199.48 76.0712 199.671 76.1144 199.909 76.1144C200.132 76.1144 200.337 76.0568 200.524 75.9416ZM196.939 70.2284H195.826V72.7988H196.852C197.464 72.7988 197.929 72.698 198.246 72.4964C198.57 72.2876 198.732 71.96 198.732 71.5136C198.732 71.1032 198.584 70.7864 198.289 70.5632C197.994 70.34 197.544 70.2284 196.939 70.2284ZM203.502 77.0864C201.745 77.0864 200.784 76.298 200.618 74.7212L201.644 74.5808C201.731 75.1208 201.925 75.5168 202.228 75.7688C202.537 76.0208 202.984 76.1468 203.567 76.1468C204.049 76.1468 204.427 76.0424 204.701 75.8336C204.982 75.6176 205.122 75.3224 205.122 74.948C205.122 74.5952 204.989 74.3396 204.722 74.1812C204.456 74.0156 204.042 73.8644 203.48 73.7276C202.991 73.6124 202.566 73.4756 202.206 73.3172C201.853 73.1588 201.58 72.9392 201.385 72.6584C201.191 72.3704 201.094 71.9816 201.094 71.492C201.094 71.0528 201.205 70.664 201.428 70.3256C201.652 69.98 201.958 69.71 202.346 69.5156C202.735 69.3212 203.178 69.224 203.675 69.224C204.366 69.224 204.928 69.4076 205.36 69.7748C205.799 70.142 206.058 70.6496 206.137 71.2976L205.176 71.4596C205.01 70.5956 204.499 70.1636 203.642 70.1636C203.203 70.1636 202.85 70.2824 202.584 70.52C202.318 70.7504 202.184 71.0564 202.184 71.438C202.184 71.834 202.321 72.1292 202.595 72.3236C202.868 72.5108 203.304 72.6692 203.902 72.7988C204.377 72.9068 204.787 73.0364 205.133 73.1876C205.478 73.3388 205.745 73.5476 205.932 73.814C206.119 74.0804 206.213 74.444 206.213 74.9048C206.213 75.3368 206.098 75.7184 205.867 76.0496C205.637 76.3736 205.316 76.6292 204.906 76.8164C204.503 76.9964 204.035 77.0864 203.502 77.0864ZM209.945 77V69.332H211.036V76.0496H214.546L214.459 77H209.945ZM215.731 77.0972C215.508 77.0972 215.328 77.0288 215.191 76.892C215.054 76.748 214.986 76.5716 214.986 76.3628C214.986 76.1612 215.054 75.992 215.191 75.8552C215.328 75.7112 215.508 75.6392 215.731 75.6392C215.954 75.6392 216.13 75.7112 216.26 75.8552C216.397 75.992 216.465 76.1612 216.465 76.3628C216.465 76.5716 216.397 76.748 216.26 76.892C216.13 77.0288 215.954 77.0972 215.731 77.0972ZM217.676 77V69.332H218.766V76.0496H222.276L222.19 77H217.676ZM223.462 77.0972C223.238 77.0972 223.058 77.0288 222.922 76.892C222.785 76.748 222.716 76.5716 222.716 76.3628C222.716 76.1612 222.785 75.992 222.922 75.8552C223.058 75.7112 223.238 75.6392 223.462 75.6392C223.685 75.6392 223.861 75.7112 223.991 75.8552C224.128 75.992 224.196 76.1612 224.196 76.3628C224.196 76.5716 224.128 76.748 223.991 76.892C223.861 77.0288 223.685 77.0972 223.462 77.0972ZM231.238 75.5204C230.95 76.0316 230.551 76.424 230.039 76.6976C229.528 76.964 228.949 77.0972 228.301 77.0972C227.552 77.0972 226.904 76.946 226.357 76.6436C225.817 76.334 225.403 75.8984 225.115 75.3368C224.827 74.768 224.683 74.0912 224.683 73.3064C224.683 72.5 224.841 71.7908 225.158 71.1788C225.482 70.5668 225.928 70.088 226.497 69.7424C227.066 69.3968 227.728 69.224 228.484 69.224C229.737 69.224 230.659 69.7172 231.249 70.7036L230.407 71.33C230.198 70.9556 229.928 70.6784 229.597 70.4984C229.265 70.3112 228.887 70.2176 228.463 70.2176C227.937 70.2176 227.473 70.3472 227.069 70.6064C226.673 70.8656 226.36 71.2292 226.13 71.6972C225.907 72.158 225.795 72.6908 225.795 73.2956C225.795 74.1812 226.015 74.8688 226.454 75.3584C226.9 75.848 227.519 76.0928 228.311 76.0928C228.772 76.0928 229.183 75.992 229.543 75.7904C229.903 75.5888 230.194 75.2864 230.417 74.8832L231.238 75.5204Z" fill="white"/>
</svg>
